<mxfile host="Electron" modified="2023-05-04T14:11:23.261Z" agent="Mozilla/5.0 (Windows NT 10.0; Win64; x64) AppleWebKit/537.36 (KHTML, like Gecko) draw.io/21.1.2 Chrome/106.0.5249.199 Electron/21.4.3 Safari/537.36" etag="94dPKojSCvAIed6C_Ur1" version="21.1.2" type="device">
  <diagram name="Page-1" id="ge0RUx3JYliLoUckjv3V">
    <mxGraphModel dx="435" dy="533" grid="1" gridSize="10" guides="1" tooltips="1" connect="1" arrows="1" fold="1" page="1" pageScale="1" pageWidth="850" pageHeight="1100" math="0" shadow="0">
      <root>
        <mxCell id="0" />
        <mxCell id="1" parent="0" />
        <mxCell id="TSU1NX1iZhTqzZbUXTQV-17" style="rounded=0;orthogonalLoop=1;jettySize=auto;html=1;entryX=0.5;entryY=0;entryDx=0;entryDy=0;" parent="1" source="TSU1NX1iZhTqzZbUXTQV-2" target="TSU1NX1iZhTqzZbUXTQV-18" edge="1">
          <mxGeometry relative="1" as="geometry">
            <mxPoint x="630" y="169.9999999999999" as="targetPoint" />
          </mxGeometry>
        </mxCell>
        <mxCell id="TSU1NX1iZhTqzZbUXTQV-2" value="start" style="ellipse;whiteSpace=wrap;html=1;aspect=fixed;" parent="1" vertex="1">
          <mxGeometry x="590" width="80" height="80" as="geometry" />
        </mxCell>
        <mxCell id="TSU1NX1iZhTqzZbUXTQV-5" style="rounded=0;orthogonalLoop=1;jettySize=auto;html=1;entryX=0;entryY=0.5;entryDx=0;entryDy=0;" parent="1" source="TSU1NX1iZhTqzZbUXTQV-4" target="TSU1NX1iZhTqzZbUXTQV-7" edge="1">
          <mxGeometry relative="1" as="geometry">
            <mxPoint x="290" y="80" as="targetPoint" />
          </mxGeometry>
        </mxCell>
        <mxCell id="TSU1NX1iZhTqzZbUXTQV-4" value="nhập 1 ký tự trong khoảng từ a-z, kiểm tra xem nếu nó là chữ thường thì chuyển thành in hoa hoặc ngược lại" style="whiteSpace=wrap;html=1;aspect=fixed;" parent="1" vertex="1">
          <mxGeometry x="30" y="50" width="160" height="160" as="geometry" />
        </mxCell>
        <mxCell id="TSU1NX1iZhTqzZbUXTQV-7" value="input: ký tự ch" style="rounded=0;whiteSpace=wrap;html=1;" parent="1" vertex="1">
          <mxGeometry x="290" y="40" width="120" height="60" as="geometry" />
        </mxCell>
        <mxCell id="TSU1NX1iZhTqzZbUXTQV-12" style="rounded=0;orthogonalLoop=1;jettySize=auto;html=1;entryX=0;entryY=0.5;entryDx=0;entryDy=0;" parent="1" source="TSU1NX1iZhTqzZbUXTQV-4" target="TSU1NX1iZhTqzZbUXTQV-13" edge="1">
          <mxGeometry relative="1" as="geometry">
            <mxPoint x="280" y="150" as="targetPoint" />
            <mxPoint x="190" y="108" as="sourcePoint" />
          </mxGeometry>
        </mxCell>
        <mxCell id="TSU1NX1iZhTqzZbUXTQV-13" value="process: chuyển in thường thành in hoa hoặc ngược lại" style="rounded=0;whiteSpace=wrap;html=1;" parent="1" vertex="1">
          <mxGeometry x="280" y="120" width="120" height="60" as="geometry" />
        </mxCell>
        <mxCell id="TSU1NX1iZhTqzZbUXTQV-14" style="rounded=0;orthogonalLoop=1;jettySize=auto;html=1;entryX=0;entryY=0.25;entryDx=0;entryDy=0;" parent="1" source="TSU1NX1iZhTqzZbUXTQV-4" target="TSU1NX1iZhTqzZbUXTQV-15" edge="1">
          <mxGeometry relative="1" as="geometry">
            <mxPoint x="270" y="230" as="targetPoint" />
            <mxPoint x="190" y="139" as="sourcePoint" />
          </mxGeometry>
        </mxCell>
        <mxCell id="TSU1NX1iZhTqzZbUXTQV-15" value="output: in ra ký tự vừa chuyển đổi" style="rounded=0;whiteSpace=wrap;html=1;" parent="1" vertex="1">
          <mxGeometry x="270" y="210" width="120" height="60" as="geometry" />
        </mxCell>
        <mxCell id="TSU1NX1iZhTqzZbUXTQV-18" value="input: ch" style="shape=parallelogram;perimeter=parallelogramPerimeter;whiteSpace=wrap;html=1;fixedSize=1;" parent="1" vertex="1">
          <mxGeometry x="570" y="110" width="120" height="60" as="geometry" />
        </mxCell>
        <mxCell id="TSU1NX1iZhTqzZbUXTQV-22" value="end" style="ellipse;whiteSpace=wrap;html=1;aspect=fixed;" parent="1" vertex="1">
          <mxGeometry x="575" y="560" width="80" height="80" as="geometry" />
        </mxCell>
        <mxCell id="TSU1NX1iZhTqzZbUXTQV-35" style="rounded=0;orthogonalLoop=1;jettySize=auto;html=1;entryX=0.5;entryY=0;entryDx=0;entryDy=0;exitX=0.5;exitY=1;exitDx=0;exitDy=0;" parent="1" source="TSU1NX1iZhTqzZbUXTQV-18" target="Yubh7xGughw3mYgltP4X-2" edge="1">
          <mxGeometry relative="1" as="geometry">
            <mxPoint x="617.5" y="300" as="targetPoint" />
            <mxPoint x="616.25" y="250" as="sourcePoint" />
          </mxGeometry>
        </mxCell>
        <mxCell id="7XLpumBAwAmDv-yZLWx--3" value="T" style="rounded=0;orthogonalLoop=1;jettySize=auto;html=1;entryX=0;entryY=0.5;entryDx=0;entryDy=0;" parent="1" source="Yubh7xGughw3mYgltP4X-2" target="7XLpumBAwAmDv-yZLWx--4" edge="1">
          <mxGeometry relative="1" as="geometry">
            <mxPoint x="790" y="350" as="targetPoint" />
          </mxGeometry>
        </mxCell>
        <mxCell id="t6G_iK4bh2engV4PfxKn-3" value="F" style="edgeStyle=orthogonalEdgeStyle;rounded=0;orthogonalLoop=1;jettySize=auto;html=1;entryX=0.5;entryY=0;entryDx=0;entryDy=0;" edge="1" parent="1" source="Yubh7xGughw3mYgltP4X-2" target="t6G_iK4bh2engV4PfxKn-5">
          <mxGeometry relative="1" as="geometry">
            <mxPoint x="615" y="380" as="targetPoint" />
          </mxGeometry>
        </mxCell>
        <mxCell id="Yubh7xGughw3mYgltP4X-2" value="ch &amp;gt;= &#39;a&#39; &amp;amp;&amp;amp; ch &amp;lt;= &#39;z&#39;" style="rhombus;whiteSpace=wrap;html=1;" parent="1" vertex="1">
          <mxGeometry x="520" y="230" width="190" height="100" as="geometry" />
        </mxCell>
        <mxCell id="t6G_iK4bh2engV4PfxKn-4" style="rounded=0;orthogonalLoop=1;jettySize=auto;html=1;entryX=1;entryY=1;entryDx=0;entryDy=0;" edge="1" parent="1" source="7XLpumBAwAmDv-yZLWx--4" target="t6G_iK4bh2engV4PfxKn-1">
          <mxGeometry relative="1" as="geometry" />
        </mxCell>
        <mxCell id="7XLpumBAwAmDv-yZLWx--4" value="ch = ch - 32" style="rounded=0;whiteSpace=wrap;html=1;" parent="1" vertex="1">
          <mxGeometry x="750" y="330" width="120" height="50" as="geometry" />
        </mxCell>
        <mxCell id="t6G_iK4bh2engV4PfxKn-2" style="edgeStyle=orthogonalEdgeStyle;rounded=0;orthogonalLoop=1;jettySize=auto;html=1;entryX=0.5;entryY=0;entryDx=0;entryDy=0;" edge="1" parent="1" source="t6G_iK4bh2engV4PfxKn-1" target="TSU1NX1iZhTqzZbUXTQV-22">
          <mxGeometry relative="1" as="geometry" />
        </mxCell>
        <mxCell id="t6G_iK4bh2engV4PfxKn-1" value="print:&lt;br&gt;Ky tu sau khi doi la: ch" style="shape=parallelogram;perimeter=parallelogramPerimeter;whiteSpace=wrap;html=1;fixedSize=1;" vertex="1" parent="1">
          <mxGeometry x="530" y="460" width="170" height="60" as="geometry" />
        </mxCell>
        <mxCell id="t6G_iK4bh2engV4PfxKn-6" style="edgeStyle=orthogonalEdgeStyle;rounded=0;orthogonalLoop=1;jettySize=auto;html=1;entryX=0.5;entryY=0;entryDx=0;entryDy=0;" edge="1" parent="1" source="t6G_iK4bh2engV4PfxKn-5" target="t6G_iK4bh2engV4PfxKn-1">
          <mxGeometry relative="1" as="geometry" />
        </mxCell>
        <mxCell id="t6G_iK4bh2engV4PfxKn-8" value="T" style="rounded=0;orthogonalLoop=1;jettySize=auto;html=1;" edge="1" parent="1" source="t6G_iK4bh2engV4PfxKn-5" target="t6G_iK4bh2engV4PfxKn-9">
          <mxGeometry relative="1" as="geometry">
            <mxPoint x="450" y="385" as="targetPoint" />
          </mxGeometry>
        </mxCell>
        <mxCell id="t6G_iK4bh2engV4PfxKn-5" value="ch &amp;gt;= &#39;A&#39; &amp;amp;&amp;amp; ch &amp;lt;= &#39;Z&#39;" style="rhombus;whiteSpace=wrap;html=1;" vertex="1" parent="1">
          <mxGeometry x="520" y="360" width="190" height="70" as="geometry" />
        </mxCell>
        <mxCell id="t6G_iK4bh2engV4PfxKn-10" style="rounded=0;orthogonalLoop=1;jettySize=auto;html=1;entryX=0;entryY=0.5;entryDx=0;entryDy=0;" edge="1" parent="1" source="t6G_iK4bh2engV4PfxKn-9" target="t6G_iK4bh2engV4PfxKn-1">
          <mxGeometry relative="1" as="geometry" />
        </mxCell>
        <mxCell id="t6G_iK4bh2engV4PfxKn-9" value="ch = ch + 32" style="rounded=0;whiteSpace=wrap;html=1;" vertex="1" parent="1">
          <mxGeometry x="340" y="365" width="120" height="60" as="geometry" />
        </mxCell>
      </root>
    </mxGraphModel>
  </diagram>
</mxfile>
